<svg width="0" height="0" class="hidden"><symbol xmlns="http://www.w3.org/2000/svg" viewBox="0 0 9 14" id="facebook"><path d="M7.29 1.54H5.94c-1.52 0-2.5 1.02-2.5 2.61v1.21H2.09c-.12 0-.22.09-.22.21v1.75c0 .12.1.22.22.22h1.35v4.4c0 .12.1.22.22.22h1.77c.11 0 .21-.1.21-.22v-4.4h1.58c.12 0 .22-.1.22-.22V5.57c0-.06-.03-.11-.07-.15a.204.204 0 00-.15-.06H5.64V4.33c0-.49.11-.74.74-.74h.91c.12 0 .21-.09.21-.21V1.75c0-.12-.09-.21-.21-.21z"/></symbol><symbol xmlns="http://www.w3.org/2000/svg" viewBox="0 0 11 10" id="twitter"><path d="M10.22.95c-.39.25-.83.43-1.3.53-.37-.43-.91-.69-1.5-.69-1.13 0-2.05.99-2.05 2.21 0 .17.02.34.05.5-1.7-.09-3.21-.97-4.22-2.31-.18.33-.28.7-.28 1.11 0 .77.36 1.44.91 1.84-.33-.01-.65-.11-.93-.28v.03c0 1.07.71 1.96 1.65 2.17-.17.05-.36.07-.54.07-.14 0-.26-.01-.39-.04.26.88 1.02 1.52 1.92 1.54a3.946 3.946 0 01-3.04.91c.91.63 1.99 1 3.14 1 3.78 0 5.84-3.37 5.84-6.29l-.01-.29c.41-.31.76-.7 1.03-1.14-.37.18-.76.3-1.18.35.43-.27.75-.71.9-1.22z"/></symbol></svg>